<mxfile host="app.diagrams.net" modified="2023-12-09T23:36:38.457Z" agent="Mozilla/5.0 (Windows NT 10.0; Win64; x64; rv:120.0) Gecko/20100101 Firefox/120.0" version="21.4.0" etag="RrUACRvNqc1gSWPqgxOu" type="github">
  <diagram name="PÃ¡gina-1" id="EoS_sAg1PRWccrzNPGtH">
    <mxGraphModel>
      <root>
        <mxCell id="0" />
        <mxCell id="1" parent="0" />
      </root>
    </mxGraphModel>
  </diagram>
</mxfile>
